<svg width="1024" height="1024" viewBox="0 0 1024 1024" fill="none" xmlns="http://www.w3.org/2000/svg">
<rect width="1024" height="1024" rx="100" fill="black"/>
<path d="M510.438 211C557.226 211 600.339 221.353 639.643 242.129C679.781 262.2 712.218 291.554 736.877 330.06C761.761 368.914 774 416.033 774 471.033V778.546C774 797.574 758.574 813 739.546 813C720.518 813 705.093 797.574 705.093 778.546V474.4C705.093 430.593 695.602 394.281 677.06 365.06L677.003 364.97L676.948 364.879C658.934 334.633 634.902 312.086 604.794 297.041L604.697 296.992L604.602 296.941C574.981 281.058 543.628 273.14 510.438 273.14C477.188 273.14 445.79 280.713 416.148 295.886C386.755 310.931 362.662 333.516 343.86 363.868L343.839 363.902L343.817 363.938C325.287 393.141 315.784 429.818 315.784 474.4V779.107C315.784 797.826 300.611 813 281.893 813C263.174 813 248 797.826 248 779.107V471.033C248 416.033 260.24 368.914 285.123 330.06L286.285 328.261C310.791 290.65 342.828 261.904 382.322 242.146C422.331 221.386 465.07 211 510.438 211Z" fill="#00F1A0" stroke="#00F1A0" stroke-width="15"/>
</svg>
