<svg width="2663" height="515" viewBox="0 0 2663 515" fill="none" xmlns="http://www.w3.org/2000/svg">
<mask id="path-1-outside-1_168_5" maskUnits="userSpaceOnUse" x="0.74707" y="0.416504" width="2662" height="515" fill="black">
<rect fill="white" x="0.74707" y="0.416504" width="2662" height="515"/>
<path fill-rule="evenodd" clip-rule="evenodd" d="M486.51 384C457.705 384 431.6 378.779 408.196 368.337C384.792 357.535 366.249 341.873 352.567 321.349C338.884 300.826 332.043 275.802 332.043 246.277C332.043 220.712 337.264 196.948 347.706 174.984C358.148 153.021 372.91 135.378 391.993 122.055C411.437 108.733 434.301 102.072 460.585 102.072C486.51 102.072 508.653 107.833 527.016 119.355C545.74 130.877 559.962 146.539 569.684 166.343C579.765 185.786 584.806 207.75 584.806 232.234L584.139 242.018C583.602 249.888 577.062 255.998 569.173 255.998H359.048C359.768 278.682 365.889 297.945 377.411 313.788C388.933 329.631 404.055 341.513 422.779 349.434C441.502 357.355 461.665 361.316 483.269 361.316H539.438C545.702 361.316 550.78 366.394 550.78 372.658C550.78 378.922 545.702 384 539.438 384H486.51ZM558.342 236.015H359.048C359.048 222.692 361.388 209.55 366.069 196.588C370.75 183.266 377.411 171.204 386.052 160.402C394.694 149.24 405.136 140.418 417.378 133.937C429.98 127.456 444.022 124.216 459.505 124.216C476.788 124.216 491.37 126.916 503.252 132.317C515.134 137.718 524.676 144.739 531.877 153.381C539.439 162.022 545.2 171.384 549.16 181.465C553.121 191.187 555.641 200.909 556.721 210.63C558.162 220.352 558.702 228.814 558.342 236.015Z"/>
<path fill-rule="evenodd" clip-rule="evenodd" d="M2233.37 384C2204.56 384 2178.46 378.779 2155.06 368.337C2131.65 357.535 2113.11 341.873 2099.43 321.349C2085.74 300.826 2078.9 275.802 2078.9 246.277C2078.9 220.712 2084.12 196.948 2094.57 174.984C2105.01 153.021 2119.77 135.378 2138.85 122.055C2158.3 108.733 2181.16 102.072 2207.45 102.072C2233.37 102.072 2255.51 107.833 2273.88 119.355C2292.6 130.877 2306.82 146.539 2316.54 166.343C2326.63 185.786 2331.67 207.75 2331.67 232.234L2331 242.018C2330.47 249.888 2323.93 255.998 2316.04 255.998H2105.91C2106.63 278.682 2112.75 297.945 2124.27 313.788C2135.79 329.631 2150.92 341.513 2169.64 349.434C2188.36 357.355 2208.53 361.316 2230.13 361.316H2286.3C2292.56 361.316 2297.64 366.394 2297.64 372.658C2297.64 378.922 2292.56 384 2286.3 384H2233.37ZM2305.2 236.015H2105.91C2105.91 222.692 2108.25 209.55 2112.93 196.588C2117.61 183.266 2124.27 171.204 2132.91 160.402C2141.55 149.24 2152 140.418 2164.24 133.937C2176.84 127.456 2190.88 124.216 2206.37 124.216C2223.65 124.216 2238.23 126.916 2250.11 132.317C2261.99 137.718 2271.54 144.739 2278.74 153.381C2286.3 162.022 2292.06 171.384 2296.02 181.465C2299.98 191.187 2302.5 200.909 2303.58 210.63C2305.02 220.352 2305.56 228.814 2305.2 236.015Z"/>
<path fill-rule="evenodd" clip-rule="evenodd" d="M25.4392 384C18.4295 384 12.7471 378.317 12.7471 371.308V223.053C12.7471 197.128 18.508 175.164 30.03 157.161C41.552 139.158 56.6746 125.476 75.3978 116.114C94.1209 106.393 114.105 101.532 135.348 101.532C157.312 101.532 177.476 106.393 195.839 116.114C214.562 125.476 229.684 139.158 241.206 157.161C252.728 175.164 258.489 197.128 258.489 223.053V371.038C258.489 378.197 252.685 384 245.527 384C238.368 384 232.565 378.197 232.565 371.038V224.673C232.565 203.069 227.884 184.886 218.523 170.124C209.521 155.001 197.459 143.659 182.336 136.098C167.574 128.176 151.911 124.216 135.348 124.216C118.786 124.216 103.123 127.996 88.36 135.558C73.5974 143.119 61.5354 154.461 52.1738 169.583C42.8122 184.346 38.1314 202.709 38.1314 224.673V371.308C38.1314 378.317 32.4489 384 25.4392 384ZM784.721 391.021C757.356 391.021 733.052 384.72 711.808 372.118C690.564 359.156 673.822 341.693 661.58 319.729C649.697 297.765 643.756 273.281 643.756 246.277C643.756 219.272 649.697 194.788 661.58 172.824C673.822 150.86 690.564 133.577 711.808 120.975C733.052 108.013 757.356 101.532 784.721 101.532C812.445 101.532 836.929 108.013 858.173 120.975C879.417 133.577 895.979 150.86 907.862 172.824C920.104 194.428 926.225 218.912 926.225 246.277C926.225 273.281 920.104 297.765 907.862 319.729C895.979 341.693 879.417 359.156 858.173 372.118C836.929 384.72 812.445 391.021 784.721 391.021ZM784.721 368.337C807.404 368.337 827.388 362.936 844.671 352.135C861.954 341.333 875.456 326.75 885.178 308.387C895.259 290.024 900.3 269.32 900.3 246.277C900.3 223.233 895.259 202.529 885.178 184.166C875.456 165.803 861.954 151.22 844.671 140.418C827.388 129.617 807.404 124.216 784.721 124.216C762.397 124.216 742.413 129.617 724.77 140.418C707.487 151.22 693.985 165.803 684.263 184.166C674.542 202.529 669.681 223.233 669.681 246.277C669.681 269.32 674.542 290.024 684.263 308.387C693.985 326.75 707.487 341.333 724.77 352.135C742.413 362.936 762.397 368.337 784.721 368.337ZM1002.28 384C996.012 384 990.934 378.922 990.934 372.658C990.934 366.394 996.012 361.316 1002.28 361.316H1119.48C1132.8 361.316 1143.96 358.616 1152.96 353.215C1161.96 347.454 1168.8 340.073 1173.49 331.071C1178.17 322.069 1180.51 312.708 1180.51 302.986C1180.51 294.345 1178.53 286.063 1174.57 278.142C1170.61 270.221 1164.48 263.739 1156.2 258.699C1148.28 253.658 1138.02 251.137 1125.42 251.137H1066.01C1048.36 251.137 1033.42 248.077 1021.18 241.956C1008.94 235.835 999.756 227.553 993.635 217.112C987.514 206.31 984.453 194.428 984.453 181.465C984.453 168.863 987.334 156.981 993.095 145.819C999.216 134.657 1008.04 125.656 1019.56 118.815C1031.08 111.973 1044.76 108.553 1060.61 108.553H1172.95C1179.21 108.553 1184.29 113.631 1184.29 119.895C1184.29 126.159 1179.21 131.237 1172.95 131.237H1063.31C1046.38 131.237 1033.42 136.278 1024.42 146.359C1015.42 156.441 1010.92 167.783 1010.92 180.385C1010.92 192.627 1015.42 203.609 1024.42 213.331C1033.78 222.692 1048 227.373 1067.09 227.373H1121.64C1141.08 227.373 1157.1 230.794 1169.7 237.635C1182.31 244.116 1191.67 252.938 1197.79 264.1C1204.27 275.261 1207.51 287.864 1207.51 301.906C1207.51 315.588 1204.09 328.731 1197.25 341.333C1190.41 353.575 1180.87 363.837 1168.62 372.118C1156.74 380.039 1142.34 384 1125.42 384H1002.28ZM1399.56 391.021C1371.47 391.021 1347.35 384.72 1327.18 372.118C1307.02 359.156 1291.54 341.693 1280.74 319.729C1270.29 297.765 1265.07 273.101 1265.07 245.736C1265.07 218.732 1270.65 194.428 1281.82 172.824C1293.34 150.86 1309.72 133.577 1330.96 120.975C1352.21 108.373 1377.59 102.072 1407.12 102.072C1434.84 102.072 1458.97 108.373 1479.49 120.975C1500.01 133.217 1515.86 149.96 1527.02 171.204C1538.54 192.087 1544.3 215.851 1544.3 242.496V371.31C1544.3 378.318 1538.62 384 1531.61 384C1524.6 384 1518.92 378.318 1518.92 371.31V317.569H1517.3C1512.26 328.731 1504.33 340.073 1493.53 351.594C1483.09 362.756 1469.95 372.118 1454.11 379.679C1438.62 387.241 1420.44 391.021 1399.56 391.021ZM1403.88 368.877C1425.84 368.877 1445.46 363.657 1462.75 353.215C1480.03 342.413 1493.53 327.65 1503.25 308.927C1513.34 289.844 1518.38 268.42 1518.38 244.656C1518.38 221.612 1513.7 201.089 1504.33 183.086C1495.33 164.723 1482.37 150.32 1465.45 139.878C1448.52 129.437 1428.72 124.216 1406.04 124.216C1382.27 124.216 1361.75 129.617 1344.47 140.418C1327.54 151.22 1314.4 165.983 1305.04 184.706C1296.04 203.429 1291.54 224.673 1291.54 248.437C1291.54 270.401 1295.86 290.564 1304.5 308.927C1313.14 327.29 1325.92 341.873 1342.85 352.675C1359.77 363.476 1380.11 368.877 1403.88 368.877ZM1768.61 101.532C1786.62 101.532 1803.9 104.772 1820.46 111.253C1837.02 117.375 1851.79 126.556 1864.75 138.798C1877.71 151.04 1887.97 166.343 1895.53 184.706C1903.1 202.709 1906.88 223.593 1906.88 247.357C1906.88 277.242 1900.57 302.986 1887.97 324.59C1875.37 345.833 1858.81 362.216 1838.28 373.738C1817.76 384.9 1795.44 390.481 1771.31 390.481C1755.11 390.481 1739.45 387.421 1724.32 381.3C1709.56 375.178 1696.42 366.717 1684.9 355.915C1673.74 345.113 1664.91 333.051 1658.43 319.729H1656.81V490.13C1656.81 497.138 1651.13 502.82 1644.12 502.82C1637.11 502.82 1631.43 497.138 1631.43 490.13V244.116C1631.43 212.791 1637.91 186.686 1650.87 165.803C1663.83 144.559 1680.76 128.536 1701.64 117.735C1722.52 106.933 1744.85 101.532 1768.61 101.532ZM1768.07 124.216C1748.99 124.216 1730.99 128.896 1714.06 138.258C1697.14 147.26 1683.46 160.762 1673.02 178.765C1662.57 196.768 1657.35 218.912 1657.35 245.196C1657.35 271.841 1662.57 294.345 1673.02 312.708C1683.82 330.711 1697.68 344.393 1714.6 353.755C1731.89 363.116 1750.07 367.797 1769.15 367.797C1788.6 367.797 1806.78 362.936 1823.7 353.215C1840.62 343.493 1854.31 329.631 1864.75 311.628C1875.55 293.265 1880.95 271.481 1880.95 246.277C1880.95 219.992 1875.55 197.848 1864.75 179.845C1853.95 161.482 1839.9 147.62 1822.62 138.258C1805.7 128.896 1787.52 124.216 1768.07 124.216ZM1993.04 384C1985.88 384 1980.08 378.197 1980.08 371.04V121.513C1980.08 114.355 1985.88 108.553 1993.04 108.553C2000.2 108.553 2006 114.355 2006 121.513V371.04C2006 378.197 2000.2 384 1993.04 384ZM1993.58 53.4635C1988.18 53.4635 1983.32 51.4832 1978.99 47.5225C1975.03 43.2018 1973.05 38.3409 1973.05 32.94C1973.05 27.179 1975.03 22.3182 1978.99 18.3575C1983.32 14.3968 1988.18 12.4165 1993.58 12.4165C1998.98 12.4165 2003.66 14.3968 2007.62 18.3575C2011.94 22.3182 2014.1 27.179 2014.1 32.94C2014.1 38.3409 2011.94 43.2018 2007.62 47.5225C2003.66 51.4832 1998.98 53.4635 1993.58 53.4635ZM2417.35 384C2410.34 384 2404.66 378.318 2404.66 371.31V223.053C2404.66 197.128 2410.42 175.164 2421.94 157.161C2433.46 139.158 2448.59 125.476 2467.31 116.114C2486.03 106.393 2506.02 101.532 2527.26 101.532C2549.22 101.532 2569.39 106.393 2587.75 116.114C2606.47 125.476 2621.6 139.158 2633.12 157.161C2644.64 175.164 2650.4 197.128 2650.4 223.053V371.04C2650.4 378.197 2644.6 384 2637.44 384C2630.28 384 2624.48 378.198 2624.48 371.04V224.673C2624.48 203.069 2619.8 184.886 2610.43 170.124C2601.43 155.001 2589.37 143.659 2574.25 136.098C2559.49 128.176 2543.82 124.216 2527.26 124.216C2510.7 124.216 2495.03 127.996 2480.27 135.558C2465.51 143.119 2453.45 154.461 2444.09 169.583C2434.72 184.346 2430.04 202.709 2430.04 224.673V371.31C2430.04 378.318 2424.36 384 2417.35 384Z"/>
</mask>
<path fill-rule="evenodd" clip-rule="evenodd" d="M486.51 384C457.705 384 431.6 378.779 408.196 368.337C384.792 357.535 366.249 341.873 352.567 321.349C338.884 300.826 332.043 275.802 332.043 246.277C332.043 220.712 337.264 196.948 347.706 174.984C358.148 153.021 372.91 135.378 391.993 122.055C411.437 108.733 434.301 102.072 460.585 102.072C486.51 102.072 508.653 107.833 527.016 119.355C545.74 130.877 559.962 146.539 569.684 166.343C579.765 185.786 584.806 207.75 584.806 232.234L584.139 242.018C583.602 249.888 577.062 255.998 569.173 255.998H359.048C359.768 278.682 365.889 297.945 377.411 313.788C388.933 329.631 404.055 341.513 422.779 349.434C441.502 357.355 461.665 361.316 483.269 361.316H539.438C545.702 361.316 550.78 366.394 550.78 372.658C550.78 378.922 545.702 384 539.438 384H486.51ZM558.342 236.015H359.048C359.048 222.692 361.388 209.55 366.069 196.588C370.75 183.266 377.411 171.204 386.052 160.402C394.694 149.24 405.136 140.418 417.378 133.937C429.98 127.456 444.022 124.216 459.505 124.216C476.788 124.216 491.37 126.916 503.252 132.317C515.134 137.718 524.676 144.739 531.877 153.381C539.439 162.022 545.2 171.384 549.16 181.465C553.121 191.187 555.641 200.909 556.721 210.63C558.162 220.352 558.702 228.814 558.342 236.015Z" fill="#00F1A0"/>
<path fill-rule="evenodd" clip-rule="evenodd" d="M2233.37 384C2204.56 384 2178.46 378.779 2155.06 368.337C2131.65 357.535 2113.11 341.873 2099.43 321.349C2085.74 300.826 2078.9 275.802 2078.9 246.277C2078.9 220.712 2084.12 196.948 2094.57 174.984C2105.01 153.021 2119.77 135.378 2138.85 122.055C2158.3 108.733 2181.16 102.072 2207.45 102.072C2233.37 102.072 2255.51 107.833 2273.88 119.355C2292.6 130.877 2306.82 146.539 2316.54 166.343C2326.63 185.786 2331.67 207.75 2331.67 232.234L2331 242.018C2330.47 249.888 2323.93 255.998 2316.04 255.998H2105.91C2106.63 278.682 2112.75 297.945 2124.27 313.788C2135.79 329.631 2150.92 341.513 2169.64 349.434C2188.36 357.355 2208.53 361.316 2230.13 361.316H2286.3C2292.56 361.316 2297.64 366.394 2297.64 372.658C2297.64 378.922 2292.56 384 2286.3 384H2233.37ZM2305.2 236.015H2105.91C2105.91 222.692 2108.25 209.55 2112.93 196.588C2117.61 183.266 2124.27 171.204 2132.91 160.402C2141.55 149.24 2152 140.418 2164.24 133.937C2176.84 127.456 2190.88 124.216 2206.37 124.216C2223.65 124.216 2238.23 126.916 2250.11 132.317C2261.99 137.718 2271.54 144.739 2278.74 153.381C2286.3 162.022 2292.06 171.384 2296.02 181.465C2299.98 191.187 2302.5 200.909 2303.58 210.63C2305.02 220.352 2305.56 228.814 2305.2 236.015Z" fill="#00F1A0"/>
<path fill-rule="evenodd" clip-rule="evenodd" d="M25.4392 384C18.4295 384 12.7471 378.317 12.7471 371.308V223.053C12.7471 197.128 18.508 175.164 30.03 157.161C41.552 139.158 56.6746 125.476 75.3978 116.114C94.1209 106.393 114.105 101.532 135.348 101.532C157.312 101.532 177.476 106.393 195.839 116.114C214.562 125.476 229.684 139.158 241.206 157.161C252.728 175.164 258.489 197.128 258.489 223.053V371.038C258.489 378.197 252.685 384 245.527 384C238.368 384 232.565 378.197 232.565 371.038V224.673C232.565 203.069 227.884 184.886 218.523 170.124C209.521 155.001 197.459 143.659 182.336 136.098C167.574 128.176 151.911 124.216 135.348 124.216C118.786 124.216 103.123 127.996 88.36 135.558C73.5974 143.119 61.5354 154.461 52.1738 169.583C42.8122 184.346 38.1314 202.709 38.1314 224.673V371.308C38.1314 378.317 32.4489 384 25.4392 384ZM784.721 391.021C757.356 391.021 733.052 384.72 711.808 372.118C690.564 359.156 673.822 341.693 661.58 319.729C649.697 297.765 643.756 273.281 643.756 246.277C643.756 219.272 649.697 194.788 661.58 172.824C673.822 150.86 690.564 133.577 711.808 120.975C733.052 108.013 757.356 101.532 784.721 101.532C812.445 101.532 836.929 108.013 858.173 120.975C879.417 133.577 895.979 150.86 907.862 172.824C920.104 194.428 926.225 218.912 926.225 246.277C926.225 273.281 920.104 297.765 907.862 319.729C895.979 341.693 879.417 359.156 858.173 372.118C836.929 384.72 812.445 391.021 784.721 391.021ZM784.721 368.337C807.404 368.337 827.388 362.936 844.671 352.135C861.954 341.333 875.456 326.75 885.178 308.387C895.259 290.024 900.3 269.32 900.3 246.277C900.3 223.233 895.259 202.529 885.178 184.166C875.456 165.803 861.954 151.22 844.671 140.418C827.388 129.617 807.404 124.216 784.721 124.216C762.397 124.216 742.413 129.617 724.77 140.418C707.487 151.22 693.985 165.803 684.263 184.166C674.542 202.529 669.681 223.233 669.681 246.277C669.681 269.32 674.542 290.024 684.263 308.387C693.985 326.75 707.487 341.333 724.77 352.135C742.413 362.936 762.397 368.337 784.721 368.337ZM1002.28 384C996.012 384 990.934 378.922 990.934 372.658C990.934 366.394 996.012 361.316 1002.28 361.316H1119.48C1132.8 361.316 1143.96 358.616 1152.96 353.215C1161.96 347.454 1168.8 340.073 1173.49 331.071C1178.17 322.069 1180.51 312.708 1180.51 302.986C1180.51 294.345 1178.53 286.063 1174.57 278.142C1170.61 270.221 1164.48 263.739 1156.2 258.699C1148.28 253.658 1138.02 251.137 1125.42 251.137H1066.01C1048.36 251.137 1033.42 248.077 1021.18 241.956C1008.94 235.835 999.756 227.553 993.635 217.112C987.514 206.31 984.453 194.428 984.453 181.465C984.453 168.863 987.334 156.981 993.095 145.819C999.216 134.657 1008.04 125.656 1019.56 118.815C1031.08 111.973 1044.76 108.553 1060.61 108.553H1172.95C1179.21 108.553 1184.29 113.631 1184.29 119.895C1184.29 126.159 1179.21 131.237 1172.95 131.237H1063.31C1046.38 131.237 1033.42 136.278 1024.42 146.359C1015.42 156.441 1010.92 167.783 1010.92 180.385C1010.92 192.627 1015.42 203.609 1024.42 213.331C1033.78 222.692 1048 227.373 1067.09 227.373H1121.64C1141.08 227.373 1157.1 230.794 1169.7 237.635C1182.31 244.116 1191.67 252.938 1197.79 264.1C1204.27 275.261 1207.51 287.864 1207.51 301.906C1207.51 315.588 1204.09 328.731 1197.25 341.333C1190.41 353.575 1180.87 363.837 1168.62 372.118C1156.74 380.039 1142.34 384 1125.42 384H1002.28ZM1399.56 391.021C1371.47 391.021 1347.35 384.72 1327.18 372.118C1307.02 359.156 1291.54 341.693 1280.74 319.729C1270.29 297.765 1265.07 273.101 1265.07 245.736C1265.07 218.732 1270.65 194.428 1281.82 172.824C1293.34 150.86 1309.72 133.577 1330.96 120.975C1352.21 108.373 1377.59 102.072 1407.12 102.072C1434.84 102.072 1458.97 108.373 1479.49 120.975C1500.01 133.217 1515.86 149.96 1527.02 171.204C1538.54 192.087 1544.3 215.851 1544.3 242.496V371.31C1544.3 378.318 1538.62 384 1531.61 384C1524.6 384 1518.92 378.318 1518.92 371.31V317.569H1517.3C1512.26 328.731 1504.33 340.073 1493.53 351.594C1483.09 362.756 1469.95 372.118 1454.11 379.679C1438.62 387.241 1420.44 391.021 1399.56 391.021ZM1403.88 368.877C1425.84 368.877 1445.46 363.657 1462.75 353.215C1480.03 342.413 1493.53 327.65 1503.25 308.927C1513.34 289.844 1518.38 268.42 1518.38 244.656C1518.38 221.612 1513.7 201.089 1504.33 183.086C1495.33 164.723 1482.37 150.32 1465.45 139.878C1448.52 129.437 1428.72 124.216 1406.04 124.216C1382.27 124.216 1361.75 129.617 1344.47 140.418C1327.54 151.22 1314.4 165.983 1305.04 184.706C1296.04 203.429 1291.54 224.673 1291.54 248.437C1291.54 270.401 1295.86 290.564 1304.5 308.927C1313.14 327.29 1325.92 341.873 1342.85 352.675C1359.77 363.476 1380.11 368.877 1403.88 368.877ZM1768.61 101.532C1786.62 101.532 1803.9 104.772 1820.46 111.253C1837.02 117.375 1851.79 126.556 1864.75 138.798C1877.71 151.04 1887.97 166.343 1895.53 184.706C1903.1 202.709 1906.88 223.593 1906.88 247.357C1906.88 277.242 1900.57 302.986 1887.97 324.59C1875.37 345.833 1858.81 362.216 1838.28 373.738C1817.76 384.9 1795.44 390.481 1771.31 390.481C1755.11 390.481 1739.45 387.421 1724.32 381.3C1709.56 375.178 1696.42 366.717 1684.9 355.915C1673.74 345.113 1664.91 333.051 1658.43 319.729H1656.81V490.13C1656.81 497.138 1651.13 502.82 1644.12 502.82C1637.11 502.82 1631.43 497.138 1631.43 490.13V244.116C1631.43 212.791 1637.91 186.686 1650.87 165.803C1663.83 144.559 1680.76 128.536 1701.64 117.735C1722.52 106.933 1744.85 101.532 1768.61 101.532ZM1768.07 124.216C1748.99 124.216 1730.99 128.896 1714.06 138.258C1697.14 147.26 1683.46 160.762 1673.02 178.765C1662.57 196.768 1657.35 218.912 1657.35 245.196C1657.35 271.841 1662.57 294.345 1673.02 312.708C1683.82 330.711 1697.68 344.393 1714.6 353.755C1731.89 363.116 1750.07 367.797 1769.15 367.797C1788.6 367.797 1806.78 362.936 1823.7 353.215C1840.62 343.493 1854.31 329.631 1864.75 311.628C1875.55 293.265 1880.95 271.481 1880.95 246.277C1880.95 219.992 1875.55 197.848 1864.75 179.845C1853.95 161.482 1839.9 147.62 1822.62 138.258C1805.7 128.896 1787.52 124.216 1768.07 124.216ZM1993.04 384C1985.88 384 1980.08 378.197 1980.08 371.04V121.513C1980.08 114.355 1985.88 108.553 1993.04 108.553C2000.2 108.553 2006 114.355 2006 121.513V371.04C2006 378.197 2000.2 384 1993.04 384ZM1993.58 53.4635C1988.18 53.4635 1983.32 51.4832 1978.99 47.5225C1975.03 43.2018 1973.05 38.3409 1973.05 32.94C1973.05 27.179 1975.03 22.3182 1978.99 18.3575C1983.32 14.3968 1988.18 12.4165 1993.58 12.4165C1998.98 12.4165 2003.66 14.3968 2007.62 18.3575C2011.94 22.3182 2014.1 27.179 2014.1 32.94C2014.1 38.3409 2011.94 43.2018 2007.62 47.5225C2003.66 51.4832 1998.98 53.4635 1993.58 53.4635ZM2417.35 384C2410.34 384 2404.66 378.318 2404.66 371.31V223.053C2404.66 197.128 2410.42 175.164 2421.94 157.161C2433.46 139.158 2448.59 125.476 2467.31 116.114C2486.03 106.393 2506.02 101.532 2527.26 101.532C2549.22 101.532 2569.39 106.393 2587.75 116.114C2606.47 125.476 2621.6 139.158 2633.12 157.161C2644.64 175.164 2650.4 197.128 2650.4 223.053V371.04C2650.4 378.197 2644.6 384 2637.44 384C2630.28 384 2624.48 378.198 2624.48 371.04V224.673C2624.48 203.069 2619.8 184.886 2610.43 170.124C2601.43 155.001 2589.37 143.659 2574.25 136.098C2559.49 128.176 2543.82 124.216 2527.26 124.216C2510.7 124.216 2495.03 127.996 2480.27 135.558C2465.51 143.119 2453.45 154.461 2444.09 169.583C2434.72 184.346 2430.04 202.709 2430.04 224.673V371.31C2430.04 378.318 2424.36 384 2417.35 384Z" fill="#00F1A0"/>
<path fill-rule="evenodd" clip-rule="evenodd" d="M486.51 384C457.705 384 431.6 378.779 408.196 368.337C384.792 357.535 366.249 341.873 352.567 321.349C338.884 300.826 332.043 275.802 332.043 246.277C332.043 220.712 337.264 196.948 347.706 174.984C358.148 153.021 372.91 135.378 391.993 122.055C411.437 108.733 434.301 102.072 460.585 102.072C486.51 102.072 508.653 107.833 527.016 119.355C545.74 130.877 559.962 146.539 569.684 166.343C579.765 185.786 584.806 207.75 584.806 232.234L584.139 242.018C583.602 249.888 577.062 255.998 569.173 255.998H359.048C359.768 278.682 365.889 297.945 377.411 313.788C388.933 329.631 404.055 341.513 422.779 349.434C441.502 357.355 461.665 361.316 483.269 361.316H539.438C545.702 361.316 550.78 366.394 550.78 372.658C550.78 378.922 545.702 384 539.438 384H486.51ZM558.342 236.015H359.048C359.048 222.692 361.388 209.55 366.069 196.588C370.75 183.266 377.411 171.204 386.052 160.402C394.694 149.24 405.136 140.418 417.378 133.937C429.98 127.456 444.022 124.216 459.505 124.216C476.788 124.216 491.37 126.916 503.252 132.317C515.134 137.718 524.676 144.739 531.877 153.381C539.439 162.022 545.2 171.384 549.16 181.465C553.121 191.187 555.641 200.909 556.721 210.63C558.162 220.352 558.702 228.814 558.342 236.015Z" stroke="#00F1A0" stroke-width="24" mask="url(#path-1-outside-1_168_5)"/>
<path fill-rule="evenodd" clip-rule="evenodd" d="M2233.37 384C2204.56 384 2178.46 378.779 2155.06 368.337C2131.65 357.535 2113.11 341.873 2099.43 321.349C2085.74 300.826 2078.9 275.802 2078.9 246.277C2078.9 220.712 2084.12 196.948 2094.57 174.984C2105.01 153.021 2119.77 135.378 2138.85 122.055C2158.3 108.733 2181.16 102.072 2207.45 102.072C2233.37 102.072 2255.51 107.833 2273.88 119.355C2292.6 130.877 2306.82 146.539 2316.54 166.343C2326.63 185.786 2331.67 207.75 2331.67 232.234L2331 242.018C2330.47 249.888 2323.93 255.998 2316.04 255.998H2105.91C2106.63 278.682 2112.75 297.945 2124.27 313.788C2135.79 329.631 2150.92 341.513 2169.64 349.434C2188.36 357.355 2208.53 361.316 2230.13 361.316H2286.3C2292.56 361.316 2297.64 366.394 2297.64 372.658C2297.64 378.922 2292.56 384 2286.3 384H2233.37ZM2305.2 236.015H2105.91C2105.91 222.692 2108.25 209.55 2112.93 196.588C2117.61 183.266 2124.27 171.204 2132.91 160.402C2141.55 149.24 2152 140.418 2164.24 133.937C2176.84 127.456 2190.88 124.216 2206.37 124.216C2223.65 124.216 2238.23 126.916 2250.11 132.317C2261.99 137.718 2271.54 144.739 2278.74 153.381C2286.3 162.022 2292.06 171.384 2296.02 181.465C2299.98 191.187 2302.5 200.909 2303.58 210.63C2305.02 220.352 2305.56 228.814 2305.2 236.015Z" stroke="#00F1A0" stroke-width="24" mask="url(#path-1-outside-1_168_5)"/>
<path fill-rule="evenodd" clip-rule="evenodd" d="M25.4392 384C18.4295 384 12.7471 378.317 12.7471 371.308V223.053C12.7471 197.128 18.508 175.164 30.03 157.161C41.552 139.158 56.6746 125.476 75.3978 116.114C94.1209 106.393 114.105 101.532 135.348 101.532C157.312 101.532 177.476 106.393 195.839 116.114C214.562 125.476 229.684 139.158 241.206 157.161C252.728 175.164 258.489 197.128 258.489 223.053V371.038C258.489 378.197 252.685 384 245.527 384C238.368 384 232.565 378.197 232.565 371.038V224.673C232.565 203.069 227.884 184.886 218.523 170.124C209.521 155.001 197.459 143.659 182.336 136.098C167.574 128.176 151.911 124.216 135.348 124.216C118.786 124.216 103.123 127.996 88.36 135.558C73.5974 143.119 61.5354 154.461 52.1738 169.583C42.8122 184.346 38.1314 202.709 38.1314 224.673V371.308C38.1314 378.317 32.4489 384 25.4392 384ZM784.721 391.021C757.356 391.021 733.052 384.72 711.808 372.118C690.564 359.156 673.822 341.693 661.58 319.729C649.697 297.765 643.756 273.281 643.756 246.277C643.756 219.272 649.697 194.788 661.58 172.824C673.822 150.86 690.564 133.577 711.808 120.975C733.052 108.013 757.356 101.532 784.721 101.532C812.445 101.532 836.929 108.013 858.173 120.975C879.417 133.577 895.979 150.86 907.862 172.824C920.104 194.428 926.225 218.912 926.225 246.277C926.225 273.281 920.104 297.765 907.862 319.729C895.979 341.693 879.417 359.156 858.173 372.118C836.929 384.72 812.445 391.021 784.721 391.021ZM784.721 368.337C807.404 368.337 827.388 362.936 844.671 352.135C861.954 341.333 875.456 326.75 885.178 308.387C895.259 290.024 900.3 269.32 900.3 246.277C900.3 223.233 895.259 202.529 885.178 184.166C875.456 165.803 861.954 151.22 844.671 140.418C827.388 129.617 807.404 124.216 784.721 124.216C762.397 124.216 742.413 129.617 724.77 140.418C707.487 151.22 693.985 165.803 684.263 184.166C674.542 202.529 669.681 223.233 669.681 246.277C669.681 269.32 674.542 290.024 684.263 308.387C693.985 326.75 707.487 341.333 724.77 352.135C742.413 362.936 762.397 368.337 784.721 368.337ZM1002.28 384C996.012 384 990.934 378.922 990.934 372.658C990.934 366.394 996.012 361.316 1002.28 361.316H1119.48C1132.8 361.316 1143.96 358.616 1152.96 353.215C1161.96 347.454 1168.8 340.073 1173.49 331.071C1178.17 322.069 1180.51 312.708 1180.51 302.986C1180.51 294.345 1178.53 286.063 1174.57 278.142C1170.61 270.221 1164.48 263.739 1156.2 258.699C1148.28 253.658 1138.02 251.137 1125.42 251.137H1066.01C1048.36 251.137 1033.42 248.077 1021.18 241.956C1008.94 235.835 999.756 227.553 993.635 217.112C987.514 206.31 984.453 194.428 984.453 181.465C984.453 168.863 987.334 156.981 993.095 145.819C999.216 134.657 1008.04 125.656 1019.56 118.815C1031.08 111.973 1044.76 108.553 1060.61 108.553H1172.95C1179.21 108.553 1184.29 113.631 1184.29 119.895C1184.29 126.159 1179.21 131.237 1172.95 131.237H1063.31C1046.38 131.237 1033.42 136.278 1024.42 146.359C1015.42 156.441 1010.92 167.783 1010.92 180.385C1010.92 192.627 1015.42 203.609 1024.42 213.331C1033.78 222.692 1048 227.373 1067.09 227.373H1121.64C1141.08 227.373 1157.1 230.794 1169.7 237.635C1182.31 244.116 1191.67 252.938 1197.79 264.1C1204.27 275.261 1207.51 287.864 1207.51 301.906C1207.51 315.588 1204.09 328.731 1197.25 341.333C1190.41 353.575 1180.87 363.837 1168.62 372.118C1156.74 380.039 1142.34 384 1125.42 384H1002.28ZM1399.56 391.021C1371.47 391.021 1347.35 384.72 1327.18 372.118C1307.02 359.156 1291.54 341.693 1280.74 319.729C1270.29 297.765 1265.07 273.101 1265.07 245.736C1265.07 218.732 1270.65 194.428 1281.82 172.824C1293.34 150.86 1309.72 133.577 1330.96 120.975C1352.21 108.373 1377.59 102.072 1407.12 102.072C1434.84 102.072 1458.97 108.373 1479.49 120.975C1500.01 133.217 1515.86 149.96 1527.02 171.204C1538.54 192.087 1544.3 215.851 1544.3 242.496V371.31C1544.3 378.318 1538.62 384 1531.61 384C1524.6 384 1518.92 378.318 1518.92 371.31V317.569H1517.3C1512.26 328.731 1504.33 340.073 1493.53 351.594C1483.09 362.756 1469.95 372.118 1454.11 379.679C1438.62 387.241 1420.44 391.021 1399.56 391.021ZM1403.88 368.877C1425.84 368.877 1445.46 363.657 1462.75 353.215C1480.03 342.413 1493.53 327.65 1503.25 308.927C1513.34 289.844 1518.38 268.42 1518.38 244.656C1518.38 221.612 1513.7 201.089 1504.33 183.086C1495.33 164.723 1482.37 150.32 1465.45 139.878C1448.52 129.437 1428.72 124.216 1406.04 124.216C1382.27 124.216 1361.75 129.617 1344.47 140.418C1327.54 151.22 1314.4 165.983 1305.04 184.706C1296.04 203.429 1291.54 224.673 1291.54 248.437C1291.54 270.401 1295.86 290.564 1304.5 308.927C1313.14 327.29 1325.92 341.873 1342.85 352.675C1359.77 363.476 1380.11 368.877 1403.88 368.877ZM1768.61 101.532C1786.62 101.532 1803.9 104.772 1820.46 111.253C1837.02 117.375 1851.79 126.556 1864.75 138.798C1877.71 151.04 1887.97 166.343 1895.53 184.706C1903.1 202.709 1906.88 223.593 1906.88 247.357C1906.88 277.242 1900.57 302.986 1887.97 324.59C1875.37 345.833 1858.81 362.216 1838.28 373.738C1817.76 384.9 1795.44 390.481 1771.31 390.481C1755.11 390.481 1739.45 387.421 1724.32 381.3C1709.56 375.178 1696.42 366.717 1684.9 355.915C1673.74 345.113 1664.91 333.051 1658.43 319.729H1656.81V490.13C1656.81 497.138 1651.13 502.82 1644.12 502.82C1637.11 502.82 1631.43 497.138 1631.43 490.13V244.116C1631.43 212.791 1637.91 186.686 1650.87 165.803C1663.83 144.559 1680.76 128.536 1701.64 117.735C1722.52 106.933 1744.85 101.532 1768.61 101.532ZM1768.07 124.216C1748.99 124.216 1730.99 128.896 1714.06 138.258C1697.14 147.26 1683.46 160.762 1673.02 178.765C1662.57 196.768 1657.35 218.912 1657.35 245.196C1657.35 271.841 1662.57 294.345 1673.02 312.708C1683.82 330.711 1697.68 344.393 1714.6 353.755C1731.89 363.116 1750.07 367.797 1769.15 367.797C1788.6 367.797 1806.78 362.936 1823.7 353.215C1840.62 343.493 1854.31 329.631 1864.75 311.628C1875.55 293.265 1880.95 271.481 1880.95 246.277C1880.95 219.992 1875.55 197.848 1864.75 179.845C1853.95 161.482 1839.9 147.62 1822.62 138.258C1805.7 128.896 1787.52 124.216 1768.07 124.216ZM1993.04 384C1985.88 384 1980.08 378.197 1980.08 371.04V121.513C1980.08 114.355 1985.88 108.553 1993.04 108.553C2000.2 108.553 2006 114.355 2006 121.513V371.04C2006 378.197 2000.2 384 1993.04 384ZM1993.58 53.4635C1988.18 53.4635 1983.32 51.4832 1978.99 47.5225C1975.03 43.2018 1973.05 38.3409 1973.05 32.94C1973.05 27.179 1975.03 22.3182 1978.99 18.3575C1983.32 14.3968 1988.18 12.4165 1993.58 12.4165C1998.98 12.4165 2003.66 14.3968 2007.62 18.3575C2011.94 22.3182 2014.1 27.179 2014.1 32.94C2014.1 38.3409 2011.94 43.2018 2007.62 47.5225C2003.66 51.4832 1998.98 53.4635 1993.58 53.4635ZM2417.35 384C2410.34 384 2404.66 378.318 2404.66 371.31V223.053C2404.66 197.128 2410.42 175.164 2421.94 157.161C2433.46 139.158 2448.59 125.476 2467.31 116.114C2486.03 106.393 2506.02 101.532 2527.26 101.532C2549.22 101.532 2569.39 106.393 2587.75 116.114C2606.47 125.476 2621.6 139.158 2633.12 157.161C2644.64 175.164 2650.4 197.128 2650.4 223.053V371.04C2650.4 378.197 2644.6 384 2637.44 384C2630.28 384 2624.48 378.198 2624.48 371.04V224.673C2624.48 203.069 2619.8 184.886 2610.43 170.124C2601.43 155.001 2589.37 143.659 2574.25 136.098C2559.49 128.176 2543.82 124.216 2527.26 124.216C2510.7 124.216 2495.03 127.996 2480.27 135.558C2465.51 143.119 2453.45 154.461 2444.09 169.583C2434.72 184.346 2430.04 202.709 2430.04 224.673V371.31C2430.04 378.318 2424.36 384 2417.35 384Z" stroke="#00F1A0" stroke-width="24" mask="url(#path-1-outside-1_168_5)"/>
</svg>
