<svg width="2663" height="515" viewBox="0 0 2663 515" fill="none" xmlns="http://www.w3.org/2000/svg">
<mask id="path-1-outside-1_228_11" maskUnits="userSpaceOnUse" x="0.74707" y="0.416016" width="2662" height="515" fill="black">
<rect fill="white" x="0.74707" y="0.416016" width="2662" height="515"/>
<path fill-rule="evenodd" clip-rule="evenodd" d="M486.51 383.999C457.705 383.999 431.6 378.778 408.196 368.336C384.792 357.534 366.249 341.872 352.567 321.348C338.884 300.825 332.043 275.801 332.043 246.276C332.043 220.711 337.264 196.947 347.706 174.983C358.148 153.02 372.91 135.377 391.993 122.054C411.437 108.732 434.301 102.071 460.585 102.071C486.51 102.071 508.653 107.832 527.016 119.354C545.74 130.876 559.962 146.538 569.684 166.342C579.765 185.785 584.806 207.749 584.806 232.233L584.139 242.018C583.602 249.888 577.062 255.997 569.173 255.997H359.048C359.768 278.681 365.889 297.944 377.411 313.787C388.933 329.63 404.055 341.512 422.779 349.433C441.502 357.354 461.665 361.315 483.269 361.315H539.438C545.702 361.315 550.78 366.393 550.78 372.657C550.78 378.921 545.702 383.999 539.438 383.999H486.51ZM558.342 236.014H359.048C359.048 222.691 361.388 209.549 366.069 196.587C370.75 183.265 377.411 171.203 386.052 160.401C394.694 149.239 405.136 140.417 417.378 133.936C429.98 127.455 444.022 124.215 459.505 124.215C476.788 124.215 491.37 126.915 503.252 132.316C515.134 137.717 524.676 144.738 531.877 153.38C539.439 162.021 545.2 171.383 549.16 181.464C553.121 191.186 555.641 200.908 556.721 210.629C558.162 220.351 558.702 228.813 558.342 236.014Z"/>
<path fill-rule="evenodd" clip-rule="evenodd" d="M2233.37 383.999C2204.56 383.999 2178.46 378.778 2155.06 368.336C2131.65 357.534 2113.11 341.872 2099.43 321.348C2085.74 300.825 2078.9 275.801 2078.9 246.276C2078.9 220.711 2084.12 196.947 2094.57 174.983C2105.01 153.02 2119.77 135.377 2138.85 122.054C2158.3 108.732 2181.16 102.071 2207.45 102.071C2233.37 102.071 2255.51 107.832 2273.88 119.354C2292.6 130.876 2306.82 146.538 2316.54 166.342C2326.63 185.785 2331.67 207.749 2331.67 232.233L2331 242.017C2330.47 249.888 2323.93 255.997 2316.04 255.997H2105.91C2106.63 278.681 2112.75 297.944 2124.27 313.787C2135.79 329.63 2150.92 341.512 2169.64 349.433C2188.36 357.354 2208.53 361.315 2230.13 361.315H2286.3C2292.56 361.315 2297.64 366.393 2297.64 372.657C2297.64 378.921 2292.56 383.999 2286.3 383.999H2233.37ZM2305.2 236.014H2105.91C2105.91 222.691 2108.25 209.549 2112.93 196.587C2117.61 183.265 2124.27 171.203 2132.91 160.401C2141.55 149.239 2152 140.417 2164.24 133.936C2176.84 127.455 2190.88 124.215 2206.37 124.215C2223.65 124.215 2238.23 126.915 2250.11 132.316C2261.99 137.717 2271.54 144.738 2278.74 153.38C2286.3 162.021 2292.06 171.383 2296.02 181.464C2299.98 191.186 2302.5 200.908 2303.58 210.629C2305.02 220.351 2305.56 228.813 2305.2 236.014Z"/>
<path fill-rule="evenodd" clip-rule="evenodd" d="M25.4392 383.999C18.4295 383.999 12.7471 378.317 12.7471 371.307V223.052C12.7471 197.127 18.508 175.163 30.03 157.16C41.552 139.157 56.6746 125.475 75.3978 116.113C94.1209 106.392 114.105 101.531 135.348 101.531C157.312 101.531 177.476 106.392 195.839 116.113C214.562 125.475 229.684 139.157 241.206 157.16C252.728 175.163 258.489 197.127 258.489 223.052V371.037C258.489 378.196 252.685 383.999 245.527 383.999C238.368 383.999 232.565 378.196 232.565 371.037V224.672C232.565 203.068 227.884 184.885 218.523 170.123C209.521 155 197.459 143.658 182.336 136.097C167.574 128.175 151.911 124.215 135.348 124.215C118.786 124.215 103.123 127.995 88.36 135.557C73.5974 143.118 61.5354 154.46 52.1738 169.582C42.8122 184.345 38.1314 202.708 38.1314 224.672V371.307C38.1314 378.317 32.4489 383.999 25.4392 383.999ZM784.721 391.02C757.356 391.02 733.052 384.719 711.808 372.117C690.564 359.155 673.822 341.692 661.58 319.728C649.697 297.764 643.756 273.28 643.756 246.276C643.756 219.271 649.697 194.787 661.58 172.823C673.822 150.859 690.564 133.576 711.808 120.974C733.052 108.012 757.356 101.531 784.721 101.531C812.445 101.531 836.929 108.012 858.173 120.974C879.417 133.576 895.979 150.859 907.862 172.823C920.104 194.427 926.225 218.911 926.225 246.276C926.225 273.28 920.104 297.764 907.862 319.728C895.979 341.692 879.417 359.155 858.173 372.117C836.929 384.719 812.445 391.02 784.721 391.02ZM784.721 368.336C807.404 368.336 827.388 362.935 844.671 352.134C861.954 341.332 875.456 326.749 885.178 308.386C895.259 290.023 900.3 269.319 900.3 246.276C900.3 223.232 895.259 202.528 885.178 184.165C875.456 165.802 861.954 151.219 844.671 140.417C827.388 129.616 807.404 124.215 784.721 124.215C762.397 124.215 742.413 129.616 724.77 140.417C707.487 151.219 693.985 165.802 684.263 184.165C674.542 202.528 669.681 223.232 669.681 246.276C669.681 269.319 674.542 290.023 684.263 308.386C693.985 326.749 707.487 341.332 724.77 352.134C742.413 362.935 762.397 368.336 784.721 368.336ZM1002.28 383.999C996.012 383.999 990.934 378.921 990.934 372.657C990.934 366.393 996.012 361.315 1002.28 361.315H1119.48C1132.8 361.315 1143.96 358.615 1152.96 353.214C1161.96 347.453 1168.8 340.072 1173.49 331.07C1178.17 322.068 1180.51 312.707 1180.51 302.985C1180.51 294.344 1178.53 286.062 1174.57 278.141C1170.61 270.22 1164.48 263.738 1156.2 258.698C1148.28 253.657 1138.02 251.136 1125.42 251.136H1066.01C1048.36 251.136 1033.42 248.076 1021.18 241.955C1008.94 235.834 999.756 227.552 993.635 217.111C987.514 206.309 984.453 194.427 984.453 181.464C984.453 168.862 987.334 156.98 993.095 145.818C999.216 134.656 1008.04 125.655 1019.56 118.814C1031.08 111.973 1044.76 108.552 1060.61 108.552H1172.95C1179.21 108.552 1184.29 113.63 1184.29 119.894C1184.29 126.158 1179.21 131.236 1172.95 131.236H1063.31C1046.38 131.236 1033.42 136.277 1024.42 146.358C1015.42 156.44 1010.92 167.782 1010.92 180.384C1010.92 192.626 1015.42 203.608 1024.42 213.33C1033.78 222.691 1048 227.372 1067.09 227.372H1121.64C1141.08 227.372 1157.1 230.793 1169.7 237.634C1182.31 244.115 1191.67 252.937 1197.79 264.099C1204.27 275.26 1207.51 287.863 1207.51 301.905C1207.51 315.587 1204.09 328.73 1197.25 341.332C1190.41 353.574 1180.87 363.836 1168.62 372.117C1156.74 380.038 1142.34 383.999 1125.42 383.999H1002.28ZM1399.56 391.02C1371.47 391.02 1347.35 384.719 1327.18 372.117C1307.02 359.155 1291.54 341.692 1280.74 319.728C1270.29 297.764 1265.07 273.1 1265.07 245.735C1265.07 218.731 1270.65 194.427 1281.82 172.823C1293.34 150.859 1309.72 133.576 1330.96 120.974C1352.21 108.372 1377.59 102.071 1407.12 102.071C1434.84 102.071 1458.97 108.372 1479.49 120.974C1500.01 133.216 1515.86 149.959 1527.02 171.203C1538.54 192.086 1544.3 215.85 1544.3 242.495V371.309C1544.3 378.318 1538.62 383.999 1531.61 383.999C1524.6 383.999 1518.92 378.318 1518.92 371.309V317.568H1517.3C1512.26 328.73 1504.33 340.072 1493.53 351.593C1483.09 362.755 1469.95 372.117 1454.11 379.678C1438.62 387.24 1420.44 391.02 1399.56 391.02ZM1403.88 368.876C1425.84 368.876 1445.46 363.656 1462.75 353.214C1480.03 342.412 1493.53 327.649 1503.25 308.926C1513.34 289.843 1518.38 268.419 1518.38 244.655C1518.38 221.611 1513.7 201.088 1504.33 183.085C1495.33 164.722 1482.37 150.319 1465.45 139.877C1448.52 129.436 1428.72 124.215 1406.04 124.215C1382.27 124.215 1361.75 129.616 1344.47 140.417C1327.54 151.219 1314.4 165.982 1305.04 184.705C1296.04 203.428 1291.54 224.672 1291.54 248.436C1291.54 270.4 1295.86 290.563 1304.5 308.926C1313.14 327.289 1325.92 341.872 1342.85 352.674C1359.77 363.475 1380.11 368.876 1403.88 368.876ZM1768.61 101.531C1786.62 101.531 1803.9 104.772 1820.46 111.253C1837.02 117.374 1851.79 126.555 1864.75 138.797C1877.71 151.039 1887.97 166.342 1895.53 184.705C1903.1 202.708 1906.88 223.592 1906.88 247.356C1906.88 277.241 1900.57 302.985 1887.97 324.589C1875.37 345.832 1858.81 362.215 1838.28 373.737C1817.76 384.899 1795.44 390.48 1771.31 390.48C1755.11 390.48 1739.45 387.42 1724.32 381.299C1709.56 375.177 1696.42 366.716 1684.9 355.914C1673.74 345.112 1664.91 333.05 1658.43 319.728H1656.81V490.129C1656.81 497.138 1651.13 502.819 1644.12 502.819C1637.11 502.819 1631.43 497.138 1631.43 490.129V244.115C1631.43 212.79 1637.91 186.685 1650.87 165.802C1663.83 144.558 1680.76 128.535 1701.64 117.734C1722.52 106.932 1744.85 101.531 1768.61 101.531ZM1768.07 124.215C1748.99 124.215 1730.99 128.895 1714.06 138.257C1697.14 147.259 1683.46 160.761 1673.02 178.764C1662.57 196.767 1657.35 218.911 1657.35 245.195C1657.35 271.84 1662.57 294.344 1673.02 312.707C1683.82 330.71 1697.68 344.392 1714.6 353.754C1731.89 363.115 1750.07 367.796 1769.15 367.796C1788.6 367.796 1806.78 362.935 1823.7 353.214C1840.62 343.492 1854.31 329.63 1864.75 311.627C1875.55 293.264 1880.95 271.48 1880.95 246.276C1880.95 219.991 1875.55 197.847 1864.75 179.844C1853.95 161.481 1839.9 147.619 1822.62 138.257C1805.7 128.895 1787.52 124.215 1768.07 124.215ZM1993.04 383.999C1985.88 383.999 1980.08 378.197 1980.08 371.039V121.512C1980.08 114.355 1985.88 108.552 1993.04 108.552C2000.2 108.552 2006 114.355 2006 121.512V371.039C2006 378.197 2000.2 383.999 1993.04 383.999ZM1993.58 53.463C1988.18 53.463 1983.32 51.4827 1978.99 47.522C1975.03 43.2013 1973.05 38.3404 1973.05 32.9395C1973.05 27.1785 1975.03 22.3177 1978.99 18.357C1983.32 14.3963 1988.18 12.416 1993.58 12.416C1998.98 12.416 2003.66 14.3963 2007.62 18.357C2011.94 22.3177 2014.1 27.1785 2014.1 32.9395C2014.1 38.3404 2011.94 43.2013 2007.62 47.522C2003.66 51.4827 1998.98 53.463 1993.58 53.463ZM2417.35 383.999C2410.34 383.999 2404.66 378.318 2404.66 371.309V223.052C2404.66 197.127 2410.42 175.163 2421.94 157.16C2433.46 139.157 2448.59 125.475 2467.31 116.113C2486.03 106.392 2506.02 101.531 2527.26 101.531C2549.22 101.531 2569.39 106.392 2587.75 116.113C2606.47 125.475 2621.6 139.157 2633.12 157.16C2644.64 175.163 2650.4 197.127 2650.4 223.052V371.039C2650.4 378.197 2644.6 383.999 2637.44 383.999C2630.28 383.999 2624.48 378.197 2624.48 371.039V224.672C2624.48 203.068 2619.8 184.885 2610.43 170.123C2601.43 155 2589.37 143.658 2574.25 136.097C2559.49 128.175 2543.82 124.215 2527.26 124.215C2510.7 124.215 2495.03 127.995 2480.27 135.557C2465.51 143.118 2453.45 154.46 2444.09 169.582C2434.72 184.345 2430.04 202.708 2430.04 224.672V371.309C2430.04 378.318 2424.36 383.999 2417.35 383.999Z"/>
</mask>
<path fill-rule="evenodd" clip-rule="evenodd" d="M486.51 383.999C457.705 383.999 431.6 378.778 408.196 368.336C384.792 357.534 366.249 341.872 352.567 321.348C338.884 300.825 332.043 275.801 332.043 246.276C332.043 220.711 337.264 196.947 347.706 174.983C358.148 153.02 372.91 135.377 391.993 122.054C411.437 108.732 434.301 102.071 460.585 102.071C486.51 102.071 508.653 107.832 527.016 119.354C545.74 130.876 559.962 146.538 569.684 166.342C579.765 185.785 584.806 207.749 584.806 232.233L584.139 242.018C583.602 249.888 577.062 255.997 569.173 255.997H359.048C359.768 278.681 365.889 297.944 377.411 313.787C388.933 329.63 404.055 341.512 422.779 349.433C441.502 357.354 461.665 361.315 483.269 361.315H539.438C545.702 361.315 550.78 366.393 550.78 372.657C550.78 378.921 545.702 383.999 539.438 383.999H486.51ZM558.342 236.014H359.048C359.048 222.691 361.388 209.549 366.069 196.587C370.75 183.265 377.411 171.203 386.052 160.401C394.694 149.239 405.136 140.417 417.378 133.936C429.98 127.455 444.022 124.215 459.505 124.215C476.788 124.215 491.37 126.915 503.252 132.316C515.134 137.717 524.676 144.738 531.877 153.38C539.439 162.021 545.2 171.383 549.16 181.464C553.121 191.186 555.641 200.908 556.721 210.629C558.162 220.351 558.702 228.813 558.342 236.014Z" fill="white"/>
<path fill-rule="evenodd" clip-rule="evenodd" d="M2233.37 383.999C2204.56 383.999 2178.46 378.778 2155.06 368.336C2131.65 357.534 2113.11 341.872 2099.43 321.348C2085.74 300.825 2078.9 275.801 2078.9 246.276C2078.9 220.711 2084.12 196.947 2094.57 174.983C2105.01 153.02 2119.77 135.377 2138.85 122.054C2158.3 108.732 2181.16 102.071 2207.45 102.071C2233.37 102.071 2255.51 107.832 2273.88 119.354C2292.6 130.876 2306.82 146.538 2316.54 166.342C2326.63 185.785 2331.67 207.749 2331.67 232.233L2331 242.017C2330.47 249.888 2323.93 255.997 2316.04 255.997H2105.91C2106.63 278.681 2112.75 297.944 2124.27 313.787C2135.79 329.63 2150.92 341.512 2169.64 349.433C2188.36 357.354 2208.53 361.315 2230.13 361.315H2286.3C2292.56 361.315 2297.64 366.393 2297.64 372.657C2297.64 378.921 2292.56 383.999 2286.3 383.999H2233.37ZM2305.2 236.014H2105.91C2105.91 222.691 2108.25 209.549 2112.93 196.587C2117.61 183.265 2124.27 171.203 2132.91 160.401C2141.55 149.239 2152 140.417 2164.24 133.936C2176.84 127.455 2190.88 124.215 2206.37 124.215C2223.65 124.215 2238.23 126.915 2250.11 132.316C2261.99 137.717 2271.54 144.738 2278.74 153.38C2286.3 162.021 2292.06 171.383 2296.02 181.464C2299.98 191.186 2302.5 200.908 2303.58 210.629C2305.02 220.351 2305.56 228.813 2305.2 236.014Z" fill="white"/>
<path fill-rule="evenodd" clip-rule="evenodd" d="M25.4392 383.999C18.4295 383.999 12.7471 378.317 12.7471 371.307V223.052C12.7471 197.127 18.508 175.163 30.03 157.16C41.552 139.157 56.6746 125.475 75.3978 116.113C94.1209 106.392 114.105 101.531 135.348 101.531C157.312 101.531 177.476 106.392 195.839 116.113C214.562 125.475 229.684 139.157 241.206 157.16C252.728 175.163 258.489 197.127 258.489 223.052V371.037C258.489 378.196 252.685 383.999 245.527 383.999C238.368 383.999 232.565 378.196 232.565 371.037V224.672C232.565 203.068 227.884 184.885 218.523 170.123C209.521 155 197.459 143.658 182.336 136.097C167.574 128.175 151.911 124.215 135.348 124.215C118.786 124.215 103.123 127.995 88.36 135.557C73.5974 143.118 61.5354 154.46 52.1738 169.582C42.8122 184.345 38.1314 202.708 38.1314 224.672V371.307C38.1314 378.317 32.4489 383.999 25.4392 383.999ZM784.721 391.02C757.356 391.02 733.052 384.719 711.808 372.117C690.564 359.155 673.822 341.692 661.58 319.728C649.697 297.764 643.756 273.28 643.756 246.276C643.756 219.271 649.697 194.787 661.58 172.823C673.822 150.859 690.564 133.576 711.808 120.974C733.052 108.012 757.356 101.531 784.721 101.531C812.445 101.531 836.929 108.012 858.173 120.974C879.417 133.576 895.979 150.859 907.862 172.823C920.104 194.427 926.225 218.911 926.225 246.276C926.225 273.28 920.104 297.764 907.862 319.728C895.979 341.692 879.417 359.155 858.173 372.117C836.929 384.719 812.445 391.02 784.721 391.02ZM784.721 368.336C807.404 368.336 827.388 362.935 844.671 352.134C861.954 341.332 875.456 326.749 885.178 308.386C895.259 290.023 900.3 269.319 900.3 246.276C900.3 223.232 895.259 202.528 885.178 184.165C875.456 165.802 861.954 151.219 844.671 140.417C827.388 129.616 807.404 124.215 784.721 124.215C762.397 124.215 742.413 129.616 724.77 140.417C707.487 151.219 693.985 165.802 684.263 184.165C674.542 202.528 669.681 223.232 669.681 246.276C669.681 269.319 674.542 290.023 684.263 308.386C693.985 326.749 707.487 341.332 724.77 352.134C742.413 362.935 762.397 368.336 784.721 368.336ZM1002.28 383.999C996.012 383.999 990.934 378.921 990.934 372.657C990.934 366.393 996.012 361.315 1002.28 361.315H1119.48C1132.8 361.315 1143.96 358.615 1152.96 353.214C1161.96 347.453 1168.8 340.072 1173.49 331.07C1178.17 322.068 1180.51 312.707 1180.51 302.985C1180.51 294.344 1178.53 286.062 1174.57 278.141C1170.61 270.22 1164.48 263.738 1156.2 258.698C1148.28 253.657 1138.02 251.136 1125.42 251.136H1066.01C1048.36 251.136 1033.42 248.076 1021.18 241.955C1008.94 235.834 999.756 227.552 993.635 217.111C987.514 206.309 984.453 194.427 984.453 181.464C984.453 168.862 987.334 156.98 993.095 145.818C999.216 134.656 1008.04 125.655 1019.56 118.814C1031.08 111.973 1044.76 108.552 1060.61 108.552H1172.95C1179.21 108.552 1184.29 113.63 1184.29 119.894C1184.29 126.158 1179.21 131.236 1172.95 131.236H1063.31C1046.38 131.236 1033.42 136.277 1024.42 146.358C1015.42 156.44 1010.92 167.782 1010.92 180.384C1010.92 192.626 1015.42 203.608 1024.42 213.33C1033.78 222.691 1048 227.372 1067.09 227.372H1121.64C1141.08 227.372 1157.1 230.793 1169.7 237.634C1182.31 244.115 1191.67 252.937 1197.79 264.099C1204.27 275.26 1207.51 287.863 1207.51 301.905C1207.51 315.587 1204.09 328.73 1197.25 341.332C1190.41 353.574 1180.87 363.836 1168.62 372.117C1156.74 380.038 1142.34 383.999 1125.42 383.999H1002.28ZM1399.56 391.02C1371.47 391.02 1347.35 384.719 1327.18 372.117C1307.02 359.155 1291.54 341.692 1280.74 319.728C1270.29 297.764 1265.07 273.1 1265.07 245.735C1265.07 218.731 1270.65 194.427 1281.82 172.823C1293.34 150.859 1309.72 133.576 1330.96 120.974C1352.21 108.372 1377.59 102.071 1407.12 102.071C1434.84 102.071 1458.97 108.372 1479.49 120.974C1500.01 133.216 1515.86 149.959 1527.02 171.203C1538.54 192.086 1544.3 215.85 1544.3 242.495V371.309C1544.3 378.318 1538.62 383.999 1531.61 383.999C1524.6 383.999 1518.92 378.318 1518.92 371.309V317.568H1517.3C1512.26 328.73 1504.33 340.072 1493.53 351.593C1483.09 362.755 1469.95 372.117 1454.11 379.678C1438.62 387.24 1420.44 391.02 1399.56 391.02ZM1403.88 368.876C1425.84 368.876 1445.46 363.656 1462.75 353.214C1480.03 342.412 1493.53 327.649 1503.25 308.926C1513.34 289.843 1518.38 268.419 1518.38 244.655C1518.38 221.611 1513.7 201.088 1504.33 183.085C1495.33 164.722 1482.37 150.319 1465.45 139.877C1448.52 129.436 1428.72 124.215 1406.04 124.215C1382.27 124.215 1361.75 129.616 1344.47 140.417C1327.54 151.219 1314.4 165.982 1305.04 184.705C1296.04 203.428 1291.54 224.672 1291.54 248.436C1291.54 270.4 1295.86 290.563 1304.5 308.926C1313.14 327.289 1325.92 341.872 1342.85 352.674C1359.77 363.475 1380.11 368.876 1403.88 368.876ZM1768.61 101.531C1786.62 101.531 1803.9 104.772 1820.46 111.253C1837.02 117.374 1851.79 126.555 1864.75 138.797C1877.71 151.039 1887.97 166.342 1895.53 184.705C1903.1 202.708 1906.88 223.592 1906.88 247.356C1906.88 277.241 1900.57 302.985 1887.97 324.589C1875.37 345.832 1858.81 362.215 1838.28 373.737C1817.76 384.899 1795.44 390.48 1771.31 390.48C1755.11 390.48 1739.45 387.42 1724.32 381.299C1709.56 375.177 1696.42 366.716 1684.9 355.914C1673.74 345.112 1664.91 333.05 1658.43 319.728H1656.81V490.129C1656.81 497.138 1651.13 502.819 1644.12 502.819C1637.11 502.819 1631.43 497.138 1631.43 490.129V244.115C1631.43 212.79 1637.91 186.685 1650.87 165.802C1663.83 144.558 1680.76 128.535 1701.64 117.734C1722.52 106.932 1744.85 101.531 1768.61 101.531ZM1768.07 124.215C1748.99 124.215 1730.99 128.895 1714.06 138.257C1697.14 147.259 1683.46 160.761 1673.02 178.764C1662.57 196.767 1657.35 218.911 1657.35 245.195C1657.35 271.84 1662.57 294.344 1673.02 312.707C1683.82 330.71 1697.68 344.392 1714.6 353.754C1731.89 363.115 1750.07 367.796 1769.15 367.796C1788.6 367.796 1806.78 362.935 1823.7 353.214C1840.62 343.492 1854.31 329.63 1864.75 311.627C1875.55 293.264 1880.95 271.48 1880.95 246.276C1880.95 219.991 1875.55 197.847 1864.75 179.844C1853.95 161.481 1839.9 147.619 1822.62 138.257C1805.7 128.895 1787.52 124.215 1768.07 124.215ZM1993.04 383.999C1985.88 383.999 1980.08 378.197 1980.08 371.039V121.512C1980.08 114.355 1985.88 108.552 1993.04 108.552C2000.2 108.552 2006 114.355 2006 121.512V371.039C2006 378.197 2000.2 383.999 1993.04 383.999ZM1993.58 53.463C1988.18 53.463 1983.32 51.4827 1978.99 47.522C1975.03 43.2013 1973.05 38.3404 1973.05 32.9395C1973.05 27.1785 1975.03 22.3177 1978.99 18.357C1983.32 14.3963 1988.18 12.416 1993.58 12.416C1998.98 12.416 2003.66 14.3963 2007.62 18.357C2011.94 22.3177 2014.1 27.1785 2014.1 32.9395C2014.1 38.3404 2011.94 43.2013 2007.62 47.522C2003.66 51.4827 1998.98 53.463 1993.58 53.463ZM2417.35 383.999C2410.34 383.999 2404.66 378.318 2404.66 371.309V223.052C2404.66 197.127 2410.42 175.163 2421.94 157.16C2433.46 139.157 2448.59 125.475 2467.31 116.113C2486.03 106.392 2506.02 101.531 2527.26 101.531C2549.22 101.531 2569.39 106.392 2587.75 116.113C2606.47 125.475 2621.6 139.157 2633.12 157.16C2644.64 175.163 2650.4 197.127 2650.4 223.052V371.039C2650.4 378.197 2644.6 383.999 2637.44 383.999C2630.28 383.999 2624.48 378.197 2624.48 371.039V224.672C2624.48 203.068 2619.8 184.885 2610.43 170.123C2601.43 155 2589.37 143.658 2574.25 136.097C2559.49 128.175 2543.82 124.215 2527.26 124.215C2510.7 124.215 2495.03 127.995 2480.27 135.557C2465.51 143.118 2453.45 154.46 2444.09 169.582C2434.72 184.345 2430.04 202.708 2430.04 224.672V371.309C2430.04 378.318 2424.36 383.999 2417.35 383.999Z" fill="white"/>
<path fill-rule="evenodd" clip-rule="evenodd" d="M486.51 383.999C457.705 383.999 431.6 378.778 408.196 368.336C384.792 357.534 366.249 341.872 352.567 321.348C338.884 300.825 332.043 275.801 332.043 246.276C332.043 220.711 337.264 196.947 347.706 174.983C358.148 153.02 372.91 135.377 391.993 122.054C411.437 108.732 434.301 102.071 460.585 102.071C486.51 102.071 508.653 107.832 527.016 119.354C545.74 130.876 559.962 146.538 569.684 166.342C579.765 185.785 584.806 207.749 584.806 232.233L584.139 242.018C583.602 249.888 577.062 255.997 569.173 255.997H359.048C359.768 278.681 365.889 297.944 377.411 313.787C388.933 329.63 404.055 341.512 422.779 349.433C441.502 357.354 461.665 361.315 483.269 361.315H539.438C545.702 361.315 550.78 366.393 550.78 372.657C550.78 378.921 545.702 383.999 539.438 383.999H486.51ZM558.342 236.014H359.048C359.048 222.691 361.388 209.549 366.069 196.587C370.75 183.265 377.411 171.203 386.052 160.401C394.694 149.239 405.136 140.417 417.378 133.936C429.98 127.455 444.022 124.215 459.505 124.215C476.788 124.215 491.37 126.915 503.252 132.316C515.134 137.717 524.676 144.738 531.877 153.38C539.439 162.021 545.2 171.383 549.16 181.464C553.121 191.186 555.641 200.908 556.721 210.629C558.162 220.351 558.702 228.813 558.342 236.014Z" stroke="white" stroke-width="24" mask="url(#path-1-outside-1_228_11)"/>
<path fill-rule="evenodd" clip-rule="evenodd" d="M2233.37 383.999C2204.56 383.999 2178.46 378.778 2155.06 368.336C2131.65 357.534 2113.11 341.872 2099.43 321.348C2085.74 300.825 2078.9 275.801 2078.9 246.276C2078.9 220.711 2084.12 196.947 2094.57 174.983C2105.01 153.02 2119.77 135.377 2138.85 122.054C2158.3 108.732 2181.16 102.071 2207.45 102.071C2233.37 102.071 2255.51 107.832 2273.88 119.354C2292.6 130.876 2306.82 146.538 2316.54 166.342C2326.63 185.785 2331.67 207.749 2331.67 232.233L2331 242.017C2330.47 249.888 2323.93 255.997 2316.04 255.997H2105.91C2106.63 278.681 2112.75 297.944 2124.27 313.787C2135.79 329.63 2150.92 341.512 2169.64 349.433C2188.36 357.354 2208.53 361.315 2230.13 361.315H2286.3C2292.56 361.315 2297.64 366.393 2297.64 372.657C2297.64 378.921 2292.56 383.999 2286.3 383.999H2233.37ZM2305.2 236.014H2105.91C2105.91 222.691 2108.25 209.549 2112.93 196.587C2117.61 183.265 2124.27 171.203 2132.91 160.401C2141.55 149.239 2152 140.417 2164.24 133.936C2176.84 127.455 2190.88 124.215 2206.37 124.215C2223.65 124.215 2238.23 126.915 2250.11 132.316C2261.99 137.717 2271.54 144.738 2278.74 153.38C2286.3 162.021 2292.06 171.383 2296.02 181.464C2299.98 191.186 2302.5 200.908 2303.58 210.629C2305.02 220.351 2305.56 228.813 2305.2 236.014Z" stroke="white" stroke-width="24" mask="url(#path-1-outside-1_228_11)"/>
<path fill-rule="evenodd" clip-rule="evenodd" d="M25.4392 383.999C18.4295 383.999 12.7471 378.317 12.7471 371.307V223.052C12.7471 197.127 18.508 175.163 30.03 157.16C41.552 139.157 56.6746 125.475 75.3978 116.113C94.1209 106.392 114.105 101.531 135.348 101.531C157.312 101.531 177.476 106.392 195.839 116.113C214.562 125.475 229.684 139.157 241.206 157.16C252.728 175.163 258.489 197.127 258.489 223.052V371.037C258.489 378.196 252.685 383.999 245.527 383.999C238.368 383.999 232.565 378.196 232.565 371.037V224.672C232.565 203.068 227.884 184.885 218.523 170.123C209.521 155 197.459 143.658 182.336 136.097C167.574 128.175 151.911 124.215 135.348 124.215C118.786 124.215 103.123 127.995 88.36 135.557C73.5974 143.118 61.5354 154.46 52.1738 169.582C42.8122 184.345 38.1314 202.708 38.1314 224.672V371.307C38.1314 378.317 32.4489 383.999 25.4392 383.999ZM784.721 391.02C757.356 391.02 733.052 384.719 711.808 372.117C690.564 359.155 673.822 341.692 661.58 319.728C649.697 297.764 643.756 273.28 643.756 246.276C643.756 219.271 649.697 194.787 661.58 172.823C673.822 150.859 690.564 133.576 711.808 120.974C733.052 108.012 757.356 101.531 784.721 101.531C812.445 101.531 836.929 108.012 858.173 120.974C879.417 133.576 895.979 150.859 907.862 172.823C920.104 194.427 926.225 218.911 926.225 246.276C926.225 273.28 920.104 297.764 907.862 319.728C895.979 341.692 879.417 359.155 858.173 372.117C836.929 384.719 812.445 391.02 784.721 391.02ZM784.721 368.336C807.404 368.336 827.388 362.935 844.671 352.134C861.954 341.332 875.456 326.749 885.178 308.386C895.259 290.023 900.3 269.319 900.3 246.276C900.3 223.232 895.259 202.528 885.178 184.165C875.456 165.802 861.954 151.219 844.671 140.417C827.388 129.616 807.404 124.215 784.721 124.215C762.397 124.215 742.413 129.616 724.77 140.417C707.487 151.219 693.985 165.802 684.263 184.165C674.542 202.528 669.681 223.232 669.681 246.276C669.681 269.319 674.542 290.023 684.263 308.386C693.985 326.749 707.487 341.332 724.77 352.134C742.413 362.935 762.397 368.336 784.721 368.336ZM1002.28 383.999C996.012 383.999 990.934 378.921 990.934 372.657C990.934 366.393 996.012 361.315 1002.28 361.315H1119.48C1132.8 361.315 1143.96 358.615 1152.96 353.214C1161.96 347.453 1168.8 340.072 1173.49 331.07C1178.17 322.068 1180.51 312.707 1180.51 302.985C1180.51 294.344 1178.53 286.062 1174.57 278.141C1170.61 270.22 1164.48 263.738 1156.2 258.698C1148.28 253.657 1138.02 251.136 1125.42 251.136H1066.01C1048.36 251.136 1033.42 248.076 1021.18 241.955C1008.94 235.834 999.756 227.552 993.635 217.111C987.514 206.309 984.453 194.427 984.453 181.464C984.453 168.862 987.334 156.98 993.095 145.818C999.216 134.656 1008.04 125.655 1019.56 118.814C1031.08 111.973 1044.76 108.552 1060.61 108.552H1172.95C1179.21 108.552 1184.29 113.63 1184.29 119.894C1184.29 126.158 1179.21 131.236 1172.95 131.236H1063.31C1046.38 131.236 1033.42 136.277 1024.42 146.358C1015.42 156.44 1010.92 167.782 1010.92 180.384C1010.92 192.626 1015.42 203.608 1024.42 213.33C1033.78 222.691 1048 227.372 1067.09 227.372H1121.64C1141.08 227.372 1157.1 230.793 1169.7 237.634C1182.31 244.115 1191.67 252.937 1197.79 264.099C1204.27 275.26 1207.51 287.863 1207.51 301.905C1207.51 315.587 1204.09 328.73 1197.25 341.332C1190.41 353.574 1180.87 363.836 1168.62 372.117C1156.74 380.038 1142.34 383.999 1125.42 383.999H1002.28ZM1399.56 391.02C1371.47 391.02 1347.35 384.719 1327.18 372.117C1307.02 359.155 1291.54 341.692 1280.74 319.728C1270.29 297.764 1265.07 273.1 1265.07 245.735C1265.07 218.731 1270.65 194.427 1281.82 172.823C1293.34 150.859 1309.72 133.576 1330.96 120.974C1352.21 108.372 1377.59 102.071 1407.12 102.071C1434.84 102.071 1458.97 108.372 1479.49 120.974C1500.01 133.216 1515.86 149.959 1527.02 171.203C1538.54 192.086 1544.3 215.85 1544.3 242.495V371.309C1544.3 378.318 1538.62 383.999 1531.61 383.999C1524.6 383.999 1518.92 378.318 1518.92 371.309V317.568H1517.3C1512.26 328.73 1504.33 340.072 1493.53 351.593C1483.09 362.755 1469.95 372.117 1454.11 379.678C1438.62 387.24 1420.44 391.02 1399.56 391.02ZM1403.88 368.876C1425.84 368.876 1445.46 363.656 1462.75 353.214C1480.03 342.412 1493.53 327.649 1503.25 308.926C1513.34 289.843 1518.38 268.419 1518.38 244.655C1518.38 221.611 1513.7 201.088 1504.33 183.085C1495.33 164.722 1482.37 150.319 1465.45 139.877C1448.52 129.436 1428.72 124.215 1406.04 124.215C1382.27 124.215 1361.75 129.616 1344.47 140.417C1327.54 151.219 1314.4 165.982 1305.04 184.705C1296.04 203.428 1291.54 224.672 1291.54 248.436C1291.54 270.4 1295.86 290.563 1304.5 308.926C1313.14 327.289 1325.92 341.872 1342.85 352.674C1359.77 363.475 1380.11 368.876 1403.88 368.876ZM1768.61 101.531C1786.62 101.531 1803.9 104.772 1820.46 111.253C1837.02 117.374 1851.79 126.555 1864.75 138.797C1877.71 151.039 1887.97 166.342 1895.53 184.705C1903.1 202.708 1906.88 223.592 1906.88 247.356C1906.88 277.241 1900.57 302.985 1887.97 324.589C1875.37 345.832 1858.81 362.215 1838.28 373.737C1817.76 384.899 1795.44 390.48 1771.31 390.48C1755.11 390.48 1739.45 387.42 1724.32 381.299C1709.56 375.177 1696.42 366.716 1684.9 355.914C1673.74 345.112 1664.91 333.05 1658.43 319.728H1656.81V490.129C1656.81 497.138 1651.13 502.819 1644.12 502.819C1637.11 502.819 1631.43 497.138 1631.43 490.129V244.115C1631.43 212.79 1637.91 186.685 1650.87 165.802C1663.83 144.558 1680.76 128.535 1701.64 117.734C1722.52 106.932 1744.85 101.531 1768.61 101.531ZM1768.07 124.215C1748.99 124.215 1730.99 128.895 1714.06 138.257C1697.14 147.259 1683.46 160.761 1673.02 178.764C1662.57 196.767 1657.35 218.911 1657.35 245.195C1657.35 271.84 1662.57 294.344 1673.02 312.707C1683.82 330.71 1697.68 344.392 1714.6 353.754C1731.89 363.115 1750.07 367.796 1769.15 367.796C1788.6 367.796 1806.78 362.935 1823.7 353.214C1840.62 343.492 1854.31 329.63 1864.75 311.627C1875.55 293.264 1880.95 271.48 1880.95 246.276C1880.95 219.991 1875.55 197.847 1864.75 179.844C1853.95 161.481 1839.9 147.619 1822.62 138.257C1805.7 128.895 1787.52 124.215 1768.07 124.215ZM1993.04 383.999C1985.88 383.999 1980.08 378.197 1980.08 371.039V121.512C1980.08 114.355 1985.88 108.552 1993.04 108.552C2000.2 108.552 2006 114.355 2006 121.512V371.039C2006 378.197 2000.2 383.999 1993.04 383.999ZM1993.58 53.463C1988.18 53.463 1983.32 51.4827 1978.99 47.522C1975.03 43.2013 1973.05 38.3404 1973.05 32.9395C1973.05 27.1785 1975.03 22.3177 1978.99 18.357C1983.32 14.3963 1988.18 12.416 1993.58 12.416C1998.98 12.416 2003.66 14.3963 2007.62 18.357C2011.94 22.3177 2014.1 27.1785 2014.1 32.9395C2014.1 38.3404 2011.94 43.2013 2007.62 47.522C2003.66 51.4827 1998.98 53.463 1993.58 53.463ZM2417.35 383.999C2410.34 383.999 2404.66 378.318 2404.66 371.309V223.052C2404.66 197.127 2410.42 175.163 2421.94 157.16C2433.46 139.157 2448.59 125.475 2467.31 116.113C2486.03 106.392 2506.02 101.531 2527.26 101.531C2549.22 101.531 2569.39 106.392 2587.75 116.113C2606.47 125.475 2621.6 139.157 2633.12 157.16C2644.64 175.163 2650.4 197.127 2650.4 223.052V371.039C2650.4 378.197 2644.6 383.999 2637.44 383.999C2630.28 383.999 2624.48 378.197 2624.48 371.039V224.672C2624.48 203.068 2619.8 184.885 2610.43 170.123C2601.43 155 2589.37 143.658 2574.25 136.097C2559.49 128.175 2543.82 124.215 2527.26 124.215C2510.7 124.215 2495.03 127.995 2480.27 135.557C2465.51 143.118 2453.45 154.46 2444.09 169.582C2434.72 184.345 2430.04 202.708 2430.04 224.672V371.309C2430.04 378.318 2424.36 383.999 2417.35 383.999Z" stroke="white" stroke-width="24" mask="url(#path-1-outside-1_228_11)"/>
</svg>
